<?xml version="1.0" encoding="UTF-8" standalone="no" ?>
<!DOCTYPE svg PUBLIC "-//W3C//DTD SVG 1.1//EN" "http://www.w3.org/Graphics/SVG/1.1/DTD/svg11.dtd">
<svg xmlns="http://www.w3.org/2000/svg" xmlns:xlink="http://www.w3.org/1999/xlink" version="1.1" width="165" height="120" viewBox="0 0 165 120" xml:space="preserve">
<desc>Created with Fabric.js 5.3.0</desc>
<defs>
</defs>
<g transform="matrix(1 0 0 1 101.2235817575 124.0266963293)" id="RA__3xpGbJvGF82htfcKO"  >
<path style="stroke: rgb(0,0,0); stroke-width: 1; stroke-dasharray: none; stroke-linecap: butt; stroke-dashoffset: 0; stroke-linejoin: miter; stroke-miterlimit: 4; fill: rgb(255,255,255); fill-opacity: 0; fill-rule: nonzero; opacity: 1;"  transform=" translate(0, 0)" d="M 0 0" stroke-linecap="round" />
</g>
<g transform="matrix(0.2032534972 0.0841903551 -0.8227693796 1.9863409949 28.5323380628 57.5787360962)" id="XO5DcTzEvuroxftEx2-p1"  >
<path style="stroke: rgb(166,249,211); stroke-width: 0; stroke-dasharray: none; stroke-linecap: butt; stroke-dashoffset: 0; stroke-linejoin: miter; stroke-miterlimit: 4; fill: rgb(0,0,0); fill-rule: nonzero; opacity: 1;"  transform=" translate(0, 0)" d="M -27.80868 -27.80868 L 27.808670000000003 -27.80868 L 27.808670000000003 27.808670000000003 L -27.80868 27.808670000000003 z" stroke-linecap="round" />
</g>
<g transform="matrix(0.2032534972 0.0841903551 -0.7665592423 1.8506377192 55.5015453463 61.352467092)" id="VqUcBbqfYBEXJz6FEcLF7"  >
<path style="stroke: rgb(166,249,211); stroke-width: 0; stroke-dasharray: none; stroke-linecap: butt; stroke-dashoffset: 0; stroke-linejoin: miter; stroke-miterlimit: 4; fill: rgb(0,0,0); fill-rule: nonzero; opacity: 1;"  transform=" translate(0, 0)" d="M -27.80868 -27.80868 L 27.808670000000003 -27.80868 L 27.808670000000003 27.808670000000003 L -27.80868 27.808670000000003 z" stroke-linecap="round" />
</g>
<g transform="matrix(0.2032534972 0.0841903551 -0.8227693796 1.9863409949 88.3711465173 57.5787388024)" id="FJVbDBNSU4RdlLLEZexL3"  >
<path style="stroke: rgb(166,249,211); stroke-width: 0; stroke-dasharray: none; stroke-linecap: butt; stroke-dashoffset: 0; stroke-linejoin: miter; stroke-miterlimit: 4; fill: rgb(0,0,0); fill-rule: nonzero; opacity: 1;"  transform=" translate(0.000005, 0.000005)" d="M -27.80868 -27.80868 L 27.808670000000003 -27.80868 L 27.808670000000003 27.808670000000003 L -27.80868 27.808670000000003 z" stroke-linecap="round" />
</g>
<g transform="matrix(0.2032534972 0.0841903551 -0.8227693796 1.9863409949 120.0619140367 61.4608300149)" id="Wo_Yba6mZ4nNaUjud9v_i"  >
<path style="stroke: rgb(166,249,211); stroke-width: 0; stroke-dasharray: none; stroke-linecap: butt; stroke-dashoffset: 0; stroke-linejoin: miter; stroke-miterlimit: 4; fill: rgb(0,0,0); fill-rule: nonzero; opacity: 1;"  transform=" translate(0.000005, 0.000005)" d="M -27.80868 -27.80868 L 27.808670000000003 -27.80868 L 27.808670000000003 27.808670000000003 L -27.80868 27.808670000000003 z" stroke-linecap="round" />
</g>
<g transform="matrix(0 0.22 -2.15 0 93.7610040393 43.3401376535)" id="4A4RNZHIgKC2D5kWAclWB"  >
<path style="stroke: rgb(166,249,211); stroke-width: 0; stroke-dasharray: none; stroke-linecap: butt; stroke-dashoffset: 0; stroke-linejoin: miter; stroke-miterlimit: 4; fill: rgb(0,0,0); fill-rule: nonzero; opacity: 1;"  transform=" translate(0.000005, 0.000005)" d="M -27.80868 -27.80868 L 27.808670000000003 -27.80868 L 27.808670000000003 27.808670000000003 L -27.80868 27.808670000000003 z" stroke-linecap="round" />
</g>
<g transform="matrix(0 0.22 -0.6650755363 0 63.9862997906 6.1179087875)" id="VSG4NSkkMes8T7rnxYkcn"  >
<path style="stroke: rgb(166,249,211); stroke-width: 0; stroke-dasharray: none; stroke-linecap: butt; stroke-dashoffset: 0; stroke-linejoin: miter; stroke-miterlimit: 4; fill: rgb(0,0,0); fill-rule: nonzero; opacity: 1;"  transform=" translate(0, 0)" d="M -27.80868 -27.80868 L 27.808670000000003 -27.80868 L 27.808670000000003 27.808670000000003 L -27.80868 27.808670000000003 z" stroke-linecap="round" />
</g>
<g transform="matrix(0.1529475 0 0 0.1529475 159.6185917891 43.3401376535)" id="vHVzoE57hEud-_DWP_fIn"  >
<path style="stroke: none; stroke-width: 1; stroke-dasharray: none; stroke-linecap: butt; stroke-dashoffset: 0; stroke-linejoin: miter; stroke-miterlimit: 4; fill: rgb(0,0,0); fill-rule: nonzero; opacity: 1;"  transform=" translate(-40, -40)" d="M 0 0 L 80 80 L 0 80 L 0 0 z" stroke-linecap="round" />
</g>
</svg>